<svg width="100" height="100" viewBox="0 0 100 100" fill="none" xmlns="http://www.w3.org/2000/svg">
<g id="Vector">
<path id="Vector_2" d="M83.2976 35.9046L53.3864 46.8658L70.1617 19.7831C70.2371 19.6647 70.3103 19.5216 70.3723 19.3921C71.2303 17.5412 70.4251 15.341 68.5742 14.483C66.7233 13.625 64.5233 14.4301 63.6654 16.281L50.2646 45.1829L42.9781 14.1693C42.9471 14.0323 42.9 13.8749 42.8505 13.7435C42.1497 11.8247 40.0246 10.8419 38.1074 11.5473C36.1887 12.2481 35.2061 14.3735 35.9069 16.2922L46.8684 46.2051L19.7864 29.4283C19.668 29.3528 19.525 29.2796 19.3955 29.2175C17.5446 28.3595 15.3446 29.1646 14.4867 31.0156C13.6287 32.8665 14.434 35.0668 16.2848 35.9248L45.1856 49.3271L14.1736 56.6129C14.0366 56.6438 13.8793 56.691 13.7478 56.7404C11.8292 57.4412 10.8467 59.5664 11.5475 61.4852C12.2483 63.4039 14.3734 64.3867 16.2907 63.6813L46.2019 52.72L29.4267 79.8028C29.3558 79.9198 29.278 80.0641 29.216 80.1937C28.358 82.0446 29.1633 84.2449 31.0141 85.1029C32.865 85.9609 35.065 85.1557 35.9229 83.3048L49.3237 54.403L56.6102 85.4165C56.6458 85.5521 56.6883 85.711 56.7378 85.8424C57.4386 87.7612 59.5639 88.7438 61.4825 88.0431C63.4012 87.3423 64.3836 85.217 63.6828 83.2982L52.7213 53.3854L79.8033 70.1622C79.9217 70.2377 80.0647 70.3109 80.1942 70.373C82.0451 71.2311 84.2451 70.4258 85.103 68.5749C85.961 66.7239 85.1558 64.5238 83.3049 63.6658L54.404 50.2634L85.4161 42.9776C85.5531 42.9467 85.7105 42.8996 85.8419 42.8501C87.7606 42.1494 88.7432 40.0239 88.0424 38.1052C87.3416 36.1864 85.2163 35.2038 83.2976 35.9046Z" fill="#7F716A"/>
</g>
</svg>
