<svg width="100" height="303" viewBox="0 0 100 303" fill="none" xmlns="http://www.w3.org/2000/svg">
<path d="M71.5683 296.256C71.5683 294.99 71.9333 293.724 72.6638 292.571L97.1925 254.881L72.6638 217.191C71.2028 214.941 71.2028 212.071 72.6638 209.821L97.1925 172.131L72.6638 134.47C71.2028 132.219 71.2028 129.35 72.6638 127.1L97.1925 89.4384L72.6638 51.776C71.2028 49.5258 71.2028 46.6572 72.6638 44.4071L99.6091 3.05989C101.632 -0.0621997 105.818 -0.933998 108.937 1.09114C112.056 3.11628 112.927 7.30739 110.904 10.4295L86.3755 48.0912L110.904 85.7536C112.365 88.0037 112.365 90.8723 110.904 93.1225L86.3755 130.785L110.904 168.447C112.365 170.697 112.365 173.566 110.904 175.816L86.3755 213.506L110.904 251.197C112.365 253.447 112.365 256.315 110.904 258.565L83.9589 299.94C81.9359 303.062 77.7493 303.934 74.6305 301.909C72.6637 300.615 71.5683 298.45 71.5683 296.256Z" fill="#C4BDBA"/>
<path d="M35.7725 296.256C35.7725 294.99 36.1375 293.724 36.868 292.571L61.3967 254.881L36.868 217.191C35.4069 214.941 35.4069 212.071 36.868 209.821L61.3967 172.131L36.868 134.47C35.4069 132.219 35.4069 129.35 36.868 127.1L61.3967 89.4384L36.868 51.776C35.4069 49.5258 35.4069 46.6572 36.868 44.4071L63.8133 3.05989C65.8363 -0.0621997 70.0223 -0.933998 73.141 1.09114C76.2598 3.11628 77.1314 7.30739 75.1084 10.4295L50.5797 48.0912L75.1084 85.7536C76.5694 88.0037 76.5694 90.8723 75.1084 93.1225L50.5797 130.785L75.1084 168.447C76.5694 170.697 76.5694 173.566 75.1084 175.816L50.5797 213.506L75.1084 251.197C76.5694 253.447 76.5694 256.315 75.1084 258.565L48.1631 299.94C46.1401 303.062 41.9534 303.934 38.8346 301.909C36.8678 300.615 35.7725 298.45 35.7725 296.256Z" fill="#C4BDBA"/>
<path d="M0.00030899 296.256C0.00030899 294.99 0.365269 293.724 1.09579 292.571L25.6245 254.881L1.09579 217.191C-0.365253 214.941 -0.365253 212.071 1.09579 209.821L25.6245 172.131L1.09579 134.47C-0.365253 132.219 -0.365253 129.35 1.09579 127.1L25.6245 89.4384L1.09579 51.776C-0.365253 49.5258 -0.365253 46.6572 1.09579 44.4071L28.0411 3.05989C30.0641 -0.0621997 34.2501 -0.933998 37.3688 1.09114C40.4876 3.11628 41.3592 7.30739 39.3362 10.4295L14.8068 48.0912L39.3362 85.7536C40.7972 88.0037 40.7972 90.8723 39.3362 93.1225L14.8068 130.785L39.3362 168.447C40.7972 170.697 40.7972 173.566 39.3362 175.816L14.8068 213.506L39.3362 251.197C40.7972 253.447 40.7972 256.315 39.3362 258.565L12.3909 299.94C10.3679 303.062 6.18122 303.934 3.06245 301.909C1.09565 300.615 0.00030899 298.45 0.00030899 296.256Z" fill="#C4BDBA"/>
</svg>
